<?xml version="1.0" standalone="no"?>
<!DOCTYPE svg PUBLIC "-//W3C//DTD SVG 20010904//EN"
 "http://www.w3.org/TR/2001/REC-SVG-20010904/DTD/svg10.dtd">
<svg version="1.0" xmlns="http://www.w3.org/2000/svg"
 width="533.000000pt" height="313.000000pt" viewBox="0 0 533.000000 313.000000"
 preserveAspectRatio="xMidYMid meet">

<g transform="translate(0.000000,313.000000) scale(0.100000,-0.100000)"
fill="#000000" stroke="none">
<path d="M4020 3080 c-8 -5 -36 -10 -61 -10 -81 0 -132 -25 -212 -104 -70 -69
-100 -116 -145 -228 -14 -34 -27 -35 -44 -4 -10 18 -18 22 -33 16 -18 -7 -19
-8 -2 -15 28 -12 21 -51 -10 -63 -16 -5 -45 -25 -66 -43 -35 -32 -38 -38 -48
-124 -5 -49 -12 -144 -15 -210 -3 -66 -9 -156 -14 -200 -7 -65 -5 -102 12
-195 11 -63 22 -128 23 -145 2 -16 5 -37 8 -45 24 -67 27 -89 17 -116 -9 -23
-8 -31 5 -41 10 -6 14 -17 10 -23 -4 -7 -2 -16 5 -20 11 -7 15 -18 19 -64 1
-5 7 -3 15 3 11 9 15 9 19 -1 9 -22 27 13 27 53 0 59 11 99 28 99 11 0 14 -9
10 -45 -5 -37 -3 -43 7 -35 11 9 12 7 8 -9 -9 -37 6 -23 29 27 19 38 23 64 23
135 l-1 89 26 -31 c14 -17 34 -43 46 -58 l21 -27 -5 57 c-5 57 10 79 23 36 4
-12 11 -17 15 -13 5 5 -2 42 -16 83 -13 40 -24 80 -24 88 0 8 -9 27 -19 41
-36 51 -101 210 -126 308 -31 122 -43 275 -25 328 14 42 52 68 73 47 6 -6 14
-49 18 -94 13 -165 96 -246 252 -247 63 0 68 -2 77 -26 18 -48 11 -75 -32
-124 -46 -51 -89 -142 -114 -242 -12 -48 -14 -81 -8 -138 20 -192 -1 -344 -66
-476 -17 -34 -30 -66 -30 -72 0 -32 -173 -132 -270 -157 -36 -9 -78 -20 -94
-25 -22 -7 -36 -5 -58 8 -23 13 -32 14 -46 4 -9 -6 -44 -26 -77 -43 -83 -43
-158 -102 -189 -149 -14 -22 -39 -46 -56 -55 -16 -8 -110 -29 -207 -46 -98
-17 -239 -46 -313 -64 -249 -62 -288 -67 -597 -66 l-282 1 -193 -64 c-106 -36
-227 -71 -268 -80 -41 -8 -100 -24 -131 -35 l-57 -19 -68 34 c-38 18 -82 34
-97 34 -37 0 -130 -62 -157 -105 -38 -61 -82 -90 -206 -134 -173 -61 -226 -95
-211 -135 6 -14 37 -16 289 -17 156 -1 286 -1 289 -1 3 1 93 17 200 36 107 20
275 43 374 51 214 18 300 29 419 57 96 22 88 22 371 -12 39 -5 119 -9 179 -9
60 -1 159 -6 221 -13 191 -20 556 13 710 64 33 11 106 23 163 28 103 7 131 16
274 91 10 5 29 9 43 9 15 0 28 7 32 17 11 30 48 57 144 109 105 56 141 94 299
313 52 72 99 131 104 131 4 0 5 -99 1 -219 -8 -240 9 -460 45 -571 18 -54 19
-55 59 -58 36 -3 43 -7 55 -36 l14 -34 164 -7 c219 -10 433 -4 449 12 22 22
-18 40 -101 48 -41 4 -86 9 -100 13 -24 6 -23 7 8 12 60 9 38 25 -53 38 -49 8
-111 20 -137 28 -26 8 -63 14 -82 14 l-36 0 0 129 c0 74 9 192 20 277 31 224
29 288 -16 499 -44 204 -46 243 -19 337 l19 67 -22 88 c-13 48 -47 140 -77
203 -57 120 -85 210 -85 270 0 19 7 73 15 120 9 47 15 121 14 165 -1 44 -1 85
0 92 0 6 28 33 61 58 68 53 81 82 54 123 -10 15 -17 35 -16 45 2 9 -4 20 -12
23 -9 3 -16 15 -16 25 0 12 -10 21 -26 25 -23 6 -25 10 -20 39 8 41 -6 53 -70
61 -48 6 -94 35 -94 59 0 22 -88 96 -136 114 -55 21 -68 46 -32 60 21 9 20 10
-12 10 -19 0 -42 -4 -50 -9z"/>
</g>
</svg>
