<svg version="1.1" id="Layer_1" xmlns="http://www.w3.org/2000/svg" xmlns:xlink="http://www.w3.org/1999/xlink" x="0px" y="0px"
	 width="100%" viewBox="0 0 876 154" enable-background="new 0 0 876 154" xml:space="preserve">
<path fill="#FEFEFE" opacity="1.000000" stroke="none" 
	d="
M636.000000,155.000000 
	C424.051300,155.000000 212.602585,155.000000 1.076943,155.000000 
	C1.076943,103.730507 1.076943,52.460873 1.076943,1.095618 
	C292.999969,1.095618 585.000000,1.095618 876.970581,1.095618 
	C876.970581,52.397465 876.970581,103.698746 876.970581,155.000000 
	C796.794128,155.000000 716.647034,155.000000 636.000000,155.000000 
M243.555344,139.002686 
	C259.204254,139.002563 274.853424,139.055588 290.502014,138.983276 
	C300.612152,138.936569 309.296997,135.315216 316.488739,128.155060 
	C328.857941,115.840218 327.815002,99.065407 314.150146,85.579185 
	C316.477448,80.872604 319.620972,76.535049 320.827484,71.712852 
	C325.184265,54.299709 310.944305,35.230835 292.151398,34.318741 
	C273.593384,33.418045 254.957458,34.121990 236.276566,34.121990 
	C236.276566,69.208939 236.276566,104.031509 236.276566,139.002686 
	C238.598969,139.002686 240.584442,139.002686 243.555344,139.002686 
M55.228584,124.190765 
	C84.401047,130.975525 113.982780,135.112381 143.767624,137.985489 
	C155.151901,139.083649 166.634125,139.646759 177.301132,144.670090 
	C179.729462,145.813660 182.800751,145.899399 185.570511,145.873505 
	C186.849045,145.861572 188.114120,144.408966 189.385300,143.609573 
	C188.475235,142.641708 187.736908,141.152405 186.628342,140.787323 
	C176.475525,137.443802 166.615982,133.618668 156.027344,131.097916 
	C127.704521,124.355309 99.966805,115.120422 72.098297,106.545357 
	C68.405106,105.408981 65.332504,102.304184 61.916069,100.202751 
	C59.679398,98.826981 57.361271,96.584381 55.044132,96.538910 
	C49.589825,96.431892 46.811512,93.126144 43.906979,89.453537 
	C42.157642,87.241615 39.796322,85.455589 38.335876,83.091530 
	C37.148907,81.170158 36.181648,78.619370 36.346947,76.441048 
	C37.095516,66.575989 40.005180,56.749092 36.089447,46.894615 
	C35.723076,45.972588 35.959602,44.212795 36.620754,43.590435 
	C38.789894,41.548557 41.045502,39.318928 43.701458,38.130249 
	C49.801365,35.400238 53.612381,29.431416 52.612385,23.036882 
	C51.501663,15.934326 46.594730,11.378462 39.425953,11.082460 
	C30.146523,10.699309 24.410549,15.723391 20.139997,23.479656 
	C14.559151,33.615696 14.717473,34.642338 25.153559,38.941772 
	C25.322609,42.519878 23.616150,44.890186 20.652449,47.002197 
	C17.613214,49.168034 14.260260,51.509834 12.390666,54.591305 
	C5.296185,66.284447 8.711299,78.244041 13.826975,89.293182 
	C15.748410,93.443214 17.150143,97.264931 17.538017,101.642532 
	C18.620804,113.862984 19.681253,126.085411 20.760115,138.416733 
	C14.458955,139.561325 7.356557,138.151337 3.423956,146.007950 
	C9.352643,146.007950 14.462319,146.041824 19.571348,145.998749 
	C25.060066,145.952469 27.985325,142.997360 28.000565,137.477905 
	C28.027321,127.786842 28.008036,118.095657 28.008036,108.404533 
	C28.550354,108.213181 29.092672,108.021828 29.634989,107.830482 
	C35.248043,117.482300 43.433277,123.020248 55.228584,124.190765 
M383.167389,134.416718 
	C400.254852,142.853394 417.846893,140.209793 435.439148,136.661880 
	C436.305695,136.487137 437.478302,134.900864 437.502411,133.946457 
	C437.678589,126.972900 437.597351,119.992836 437.597351,112.570503 
	C435.407349,112.840996 433.632111,113.150520 431.844330,113.265846 
	C422.892242,113.843407 413.937897,114.766167 404.982361,114.788681 
	C397.888336,114.806503 391.725311,112.100800 387.964203,104.873405 
	C389.307312,105.071274 390.290131,105.097572 391.200562,105.367661 
	C409.821899,110.891838 426.586090,108.674500 440.754333,94.140945 
	C446.323273,88.428375 446.501648,73.578262 441.215057,67.505470 
	C430.502228,55.199562 416.811157,51.762856 401.296906,52.848091 
	C381.670715,54.220959 366.179596,66.860558 362.116486,84.909683 
	C357.398926,105.866188 364.932709,124.039719 383.167389,134.416718 
M615.493286,58.001606 
	C620.107300,58.001606 624.721375,58.001606 629.451782,58.001606 
	C629.451782,49.769096 629.451782,42.038231 629.451782,34.268295 
	C603.429321,34.268295 577.689392,34.268295 552.001343,34.268295 
	C552.001343,69.257149 552.001343,103.975441 552.001343,138.750366 
	C560.522827,138.750366 568.774963,138.750366 577.528809,138.750366 
	C577.528809,125.287712 577.528809,112.070503 577.528809,98.460434 
	C591.636658,98.460434 605.245789,98.460434 619.066467,98.460434 
	C619.066467,90.467041 619.066467,82.882706 619.066467,74.781563 
	C605.186768,74.781563 591.464478,74.781563 577.662476,74.781563 
	C577.662476,68.894882 577.662476,63.532097 577.662476,58.001606 
	C590.187622,58.001606 602.341431,58.001606 615.493286,58.001606 
M789.871643,139.747681 
	C791.067017,139.069916 793.276489,138.427216 793.301331,137.708969 
	C793.556519,130.328568 793.457764,122.935928 793.457764,115.861443 
	C789.163513,115.861443 785.671875,116.094460 782.221497,115.816284 
	C773.093018,115.080345 765.941895,109.288681 765.148560,101.119347 
	C764.482117,94.256325 765.011536,87.277168 765.011536,79.877533 
	C772.759705,79.877533 780.497620,79.877533 788.283691,79.877533 
	C788.283691,71.801529 788.283691,64.200630 788.283691,56.101433 
	C780.287354,56.101433 772.543335,56.101433 764.458130,56.101433 
	C764.458130,48.157333 764.458130,40.710930 764.458130,33.192318 
	C755.727966,33.192318 747.361633,33.192318 738.976501,33.192318 
	C738.976501,55.550243 738.815735,77.543228 739.054993,99.531860 
	C739.151611,108.413803 742.302551,116.500504 748.026367,123.380219 
	C758.694458,136.202682 772.790833,140.665390 789.871643,139.747681 
M687.401123,53.156719 
	C681.447021,53.156719 675.492920,53.156719 669.381897,53.156719 
	C669.381897,82.015137 669.381897,110.389381 669.381897,138.618973 
	C678.078247,138.618973 686.465515,138.618973 694.606934,138.618973 
	C694.606934,109.979523 694.606934,81.727165 694.606934,53.156719 
	C692.321838,53.156719 690.346619,53.156719 687.401123,53.156719 
M834.392456,48.153389 
	C836.104187,66.646774 837.815918,85.140160 839.521606,103.568504 
	C845.513672,103.568504 850.939148,103.568504 856.649292,103.568504 
	C858.764404,80.372391 860.857056,57.422073 862.955933,34.403698 
	C852.865784,34.403698 843.042908,34.403698 833.224915,34.403698 
	C833.597839,38.953945 833.937439,43.097298 834.392456,48.153389 
M851.668274,110.652580 
	C850.517578,110.499504 849.367249,110.216675 848.216187,110.214172 
	C840.039734,110.196404 833.808960,115.835640 833.153198,123.782417 
	C832.487000,131.855484 837.674805,138.399094 845.704651,139.614059 
	C853.794617,140.838135 860.361694,136.567978 862.299377,128.823578 
	C864.366028,120.563133 860.507568,113.523384 851.668274,110.652580 
M695.612305,24.201029 
	C691.725891,16.865164 686.151367,14.282636 677.890381,15.990992 
	C671.847473,17.240656 667.423157,22.648609 667.084229,29.199688 
	C666.707581,36.477882 670.503052,42.327129 677.296448,44.436943 
	C682.712219,46.118889 687.879089,45.276138 692.148926,41.429493 
	C697.184448,36.893017 697.446716,31.070820 695.612305,24.201029 
z"/>
<path fill="#020202" opacity="1.000000" stroke="none" 
	d="
M243.062622,139.002686 
	C240.584442,139.002686 238.598969,139.002686 236.276566,139.002686 
	C236.276566,104.031509 236.276566,69.208939 236.276566,34.121990 
	C254.957458,34.121990 273.593384,33.418045 292.151398,34.318741 
	C310.944305,35.230835 325.184265,54.299709 320.827484,71.712852 
	C319.620972,76.535049 316.477448,80.872604 314.150146,85.579185 
	C327.815002,99.065407 328.857941,115.840218 316.488739,128.155060 
	C309.296997,135.315216 300.612152,138.936569 290.502014,138.983276 
	C274.853424,139.055588 259.204254,139.002563 243.062622,139.002686 
M263.447296,98.532623 
	C262.866364,99.157440 261.800964,99.767761 261.781769,100.409386 
	C261.639221,105.173828 261.704468,109.944489 261.704468,115.158936 
	C271.330231,115.158936 280.578766,115.200356 289.826752,115.144447 
	C296.046448,115.106857 299.456238,112.097427 299.380249,106.900696 
	C299.304199,101.698624 295.913879,98.612289 289.845215,98.540718 
	C281.383148,98.440926 272.918976,98.515015 263.447296,98.532623 
M293.153839,72.759659 
	C298.029083,66.059380 295.906128,58.568115 288.650116,58.165062 
	C279.746979,57.670521 270.795471,58.047123 261.895996,58.047123 
	C261.895996,63.805138 261.895996,69.071877 261.895996,74.816742 
	C271.042267,74.816742 279.977234,74.876808 288.909424,74.745567 
	C290.111816,74.727898 291.300018,73.746712 293.153839,72.759659 
z"/>
<path fill="#050505" opacity="1.000000" stroke="none" 
	d="
M54.807068,124.161728 
	C43.433277,123.020248 35.248043,117.482300 29.634989,107.830482 
	C29.092672,108.021828 28.550354,108.213181 28.008036,108.404533 
	C28.008036,118.095657 28.027321,127.786842 28.000565,137.477905 
	C27.985325,142.997360 25.060066,145.952469 19.571348,145.998749 
	C14.462319,146.041824 9.352643,146.007950 3.423956,146.007950 
	C7.356557,138.151337 14.458955,139.561325 20.760115,138.416733 
	C19.681253,126.085411 18.620804,113.862984 17.538017,101.642532 
	C17.150143,97.264931 15.748410,93.443214 13.826975,89.293182 
	C8.711299,78.244041 5.296185,66.284447 12.390666,54.591305 
	C14.260260,51.509834 17.613214,49.168034 20.652449,47.002197 
	C23.616150,44.890186 25.322609,42.519878 25.153559,38.941772 
	C14.717473,34.642338 14.559151,33.615696 20.139997,23.479656 
	C24.410549,15.723391 30.146523,10.699309 39.425953,11.082460 
	C46.594730,11.378462 51.501663,15.934326 52.612385,23.036882 
	C53.612381,29.431416 49.801365,35.400238 43.701458,38.130249 
	C41.045502,39.318928 38.789894,41.548557 36.620754,43.590435 
	C35.959602,44.212795 35.723076,45.972588 36.089447,46.894615 
	C40.005180,56.749092 37.095516,66.575989 36.346947,76.441048 
	C36.181648,78.619370 37.148907,81.170158 38.335876,83.091530 
	C39.796322,85.455589 42.157642,87.241615 43.906979,89.453537 
	C46.811512,93.126144 49.589825,96.431892 55.044132,96.538910 
	C57.361271,96.584381 59.679398,98.826981 61.916069,100.202751 
	C65.332504,102.304184 68.405106,105.408981 72.098297,106.545357 
	C99.966805,115.120422 127.704521,124.355309 156.027344,131.097916 
	C166.615982,133.618668 176.475525,137.443802 186.628342,140.787323 
	C187.736908,141.152405 188.475235,142.641708 189.385300,143.609573 
	C188.114120,144.408966 186.849045,145.861572 185.570511,145.873505 
	C182.800751,145.899399 179.729462,145.813660 177.301132,144.670090 
	C166.634125,139.646759 155.151901,139.083649 143.767624,137.985489 
	C113.982780,135.112381 84.401047,130.975525 54.807068,124.161728 
z"/>
<path fill="#030303" opacity="1.000000" stroke="none" 
	d="
M382.833221,134.247330 
	C364.932709,124.039719 357.398926,105.866188 362.116486,84.909683 
	C366.179596,66.860558 381.670715,54.220959 401.296906,52.848091 
	C416.811157,51.762856 430.502228,55.199562 441.215057,67.505470 
	C446.501648,73.578262 446.323273,88.428375 440.754333,94.140945 
	C426.586090,108.674500 409.821899,110.891838 391.200562,105.367661 
	C390.290131,105.097572 389.307312,105.071274 387.964203,104.873405 
	C391.725311,112.100800 397.888336,114.806503 404.982361,114.788681 
	C413.937897,114.766167 422.892242,113.843407 431.844330,113.265846 
	C433.632111,113.150520 435.407349,112.840996 437.597351,112.570503 
	C437.597351,119.992836 437.678589,126.972900 437.502411,133.946457 
	C437.478302,134.900864 436.305695,136.487137 435.439148,136.661880 
	C417.846893,140.209793 400.254852,142.853394 382.833221,134.247330 
M400.432648,88.042412 
	C405.324127,87.672775 410.256897,87.554604 415.079163,86.763184 
	C416.342468,86.555855 418.031677,84.307732 418.121338,82.907005 
	C418.208618,81.543480 416.827637,79.515442 415.519958,78.727974 
	C408.336426,74.402176 393.901825,78.334442 389.383484,86.060867 
	C392.906311,86.730087 396.237335,87.362877 400.432648,88.042412 
z"/>
<path fill="#020202" opacity="1.000000" stroke="none" 
	d="
M614.994263,58.001606 
	C602.341431,58.001606 590.187622,58.001606 577.662476,58.001606 
	C577.662476,63.532097 577.662476,68.894882 577.662476,74.781563 
	C591.464478,74.781563 605.186768,74.781563 619.066467,74.781563 
	C619.066467,82.882706 619.066467,90.467041 619.066467,98.460434 
	C605.245789,98.460434 591.636658,98.460434 577.528809,98.460434 
	C577.528809,112.070503 577.528809,125.287712 577.528809,138.750366 
	C568.774963,138.750366 560.522827,138.750366 552.001343,138.750366 
	C552.001343,103.975441 552.001343,69.257149 552.001343,34.268295 
	C577.689392,34.268295 603.429321,34.268295 629.451782,34.268295 
	C629.451782,42.038231 629.451782,49.769096 629.451782,58.001606 
	C624.721375,58.001606 620.107300,58.001606 614.994263,58.001606 
z"/>
<path fill="#030303" opacity="1.000000" stroke="none" 
	d="
M789.425903,139.791260 
	C772.790833,140.665390 758.694458,136.202682 748.026367,123.380219 
	C742.302551,116.500504 739.151611,108.413803 739.054993,99.531860 
	C738.815735,77.543228 738.976501,55.550243 738.976501,33.192318 
	C747.361633,33.192318 755.727966,33.192318 764.458130,33.192318 
	C764.458130,40.710930 764.458130,48.157333 764.458130,56.101433 
	C772.543335,56.101433 780.287354,56.101433 788.283691,56.101433 
	C788.283691,64.200630 788.283691,71.801529 788.283691,79.877533 
	C780.497620,79.877533 772.759705,79.877533 765.011536,79.877533 
	C765.011536,87.277168 764.482117,94.256325 765.148560,101.119347 
	C765.941895,109.288681 773.093018,115.080345 782.221497,115.816284 
	C785.671875,116.094460 789.163513,115.861443 793.457764,115.861443 
	C793.457764,122.935928 793.556519,130.328568 793.301331,137.708969 
	C793.276489,138.427216 791.067017,139.069916 789.425903,139.791260 
z"/>
<path fill="#040404" opacity="1.000000" stroke="none" 
	d="
M687.886230,53.156719 
	C690.346619,53.156719 692.321838,53.156719 694.606934,53.156719 
	C694.606934,81.727165 694.606934,109.979523 694.606934,138.618973 
	C686.465515,138.618973 678.078247,138.618973 669.381897,138.618973 
	C669.381897,110.389381 669.381897,82.015137 669.381897,53.156719 
	C675.492920,53.156719 681.447021,53.156719 687.886230,53.156719 
z"/>
<path fill="#030303" opacity="1.000000" stroke="none" 
	d="
M834.334717,47.697021 
	C833.937439,43.097298 833.597839,38.953945 833.224915,34.403698 
	C843.042908,34.403698 852.865784,34.403698 862.955933,34.403698 
	C860.857056,57.422073 858.764404,80.372391 856.649292,103.568504 
	C850.939148,103.568504 845.513672,103.568504 839.521606,103.568504 
	C837.815918,85.140160 836.104187,66.646774 834.334717,47.697021 
z"/>
<path fill="#050505" opacity="1.000000" stroke="none" 
	d="
M852.058472,110.751755 
	C860.507568,113.523384 864.366028,120.563133 862.299377,128.823578 
	C860.361694,136.567978 853.794617,140.838135 845.704651,139.614059 
	C837.674805,138.399094 832.487000,131.855484 833.153198,123.782417 
	C833.808960,115.835640 840.039734,110.196404 848.216187,110.214172 
	C849.367249,110.216675 850.517578,110.499504 852.058472,110.751755 
z"/>
<path fill="#040404" opacity="1.000000" stroke="none" 
	d="
M695.751465,24.567345 
	C697.446716,31.070820 697.184448,36.893017 692.148926,41.429493 
	C687.879089,45.276138 682.712219,46.118889 677.296448,44.436943 
	C670.503052,42.327129 666.707581,36.477882 667.084229,29.199688 
	C667.423157,22.648609 671.847473,17.240656 677.890381,15.990992 
	C686.151367,14.282636 691.725891,16.865164 695.751465,24.567345 
z"/>
<path fill="#FEFEFE" opacity="1.000000" stroke="none" 
	d="
M263.951508,98.523651 
	C272.918976,98.515015 281.383148,98.440926 289.845215,98.540718 
	C295.913879,98.612289 299.304199,101.698624 299.380249,106.900696 
	C299.456238,112.097427 296.046448,115.106857 289.826752,115.144447 
	C280.578766,115.200356 271.330231,115.158936 261.704468,115.158936 
	C261.704468,109.944489 261.639221,105.173828 261.781769,100.409386 
	C261.800964,99.767761 262.866364,99.157440 263.951508,98.523651 
z"/>
<path fill="#FAFAFA" opacity="1.000000" stroke="none" 
	d="
M292.824341,72.985672 
	C291.300018,73.746712 290.111816,74.727898 288.909424,74.745567 
	C279.977234,74.876808 271.042267,74.816742 261.895996,74.816742 
	C261.895996,69.071877 261.895996,63.805138 261.895996,58.047123 
	C270.795471,58.047123 279.746979,57.670521 288.650116,58.165062 
	C295.906128,58.568115 298.029083,66.059380 292.824341,72.985672 
z"/>
<path fill="#F8F8F8" opacity="1.000000" stroke="none" 
	d="
M400.000488,88.019035 
	C396.237335,87.362877 392.906311,86.730087 389.383484,86.060867 
	C393.901825,78.334442 408.336426,74.402176 415.519958,78.727974 
	C416.827637,79.515442 418.208618,81.543480 418.121338,82.907005 
	C418.031677,84.307732 416.342468,86.555855 415.079163,86.763184 
	C410.256897,87.554604 405.324127,87.672775 400.000488,88.019035 
z"/>
</svg>